<?xml version="1.0" standalone="no"?>
<!DOCTYPE svg PUBLIC "-//W3C//DTD SVG 20010904//EN"
 "http://www.w3.org/TR/2001/REC-SVG-20010904/DTD/svg10.dtd">
<svg version="1.0" xmlns="http://www.w3.org/2000/svg"
 width="566.000000pt" height="566.000000pt" viewBox="0 0 566.000000 566.000000"
 preserveAspectRatio="xMidYMid meet">
<metadata>
Created by potrace 1.14, written by Peter Selinger 2001-2017
</metadata>
<g transform="translate(0.000000,566.000000) scale(0.100000,-0.100000)"
fill="#000000" stroke="none">
<path d="M315 2795 l0 -1455 30 -1 c16 -1 33 -1 38 0 11 2 8 -67 -3 -74 -13
-8 4 -32 34 -46 20 -10 21 -10 2 5 -11 9 -16 16 -12 16 5 0 3 7 -4 15 -7 8 -8
15 -4 15 5 0 15 -9 22 -21 7 -11 19 -18 27 -15 8 3 17 0 21 -6 4 -7 3 -8 -4
-4 -7 4 -12 2 -12 -3 0 -14 13 -14 28 1 7 7 12 8 12 2 0 -6 15 -11 33 -11 17
0 26 2 20 4 -7 3 -13 9 -13 14 0 6 7 6 17 1 10 -5 28 -8 41 -6 16 3 21 0 16
-8 -5 -7 -3 -8 5 -4 7 5 10 14 7 21 -3 8 3 19 12 27 15 11 15 11 5 -3 -10 -12
-10 -19 1 -35 10 -14 14 -15 13 -4 -1 8 1 15 4 15 4 0 17 9 30 20 12 11 19 13
14 5 -14 -22 -15 -39 -3 -47 7 -3 8 -1 4 5 -4 7 -2 12 4 12 6 0 8 5 4 12 -5 7
-3 8 7 2 23 -14 35 -13 46 5 9 14 7 17 -11 19 -14 1 -17 -1 -8 -7 11 -7 10
-10 -3 -14 -9 -4 -13 -3 -10 3 3 6 0 10 -7 10 -13 1 20 24 35 25 4 0 6 5 5 10
-2 6 -6 9 -11 7 -4 -1 -7 4 -8 10 0 7 -2 21 -4 31 -2 9 1 15 6 11 5 -3 7 -9 4
-14 -3 -5 0 -12 7 -16 7 -4 10 -3 5 1 -4 5 1 18 10 29 17 20 17 20 -1 6 -18
-14 -19 -13 -13 3 4 10 3 16 -2 13 -5 -3 -12 1 -15 10 -3 8 -2 13 3 10 5 -3
12 2 16 12 12 27 14 43 5 37 -12 -8 -8 39 4 47 6 4 3 15 -9 28 -14 15 -20 17
-26 8 -4 -7 -10 -10 -14 -7 -3 3 5 14 17 25 12 10 18 13 13 5 -5 -9 -4 -12 3
-7 5 3 13 0 15 -6 4 -9 6 -10 6 -1 1 6 -3 15 -9 18 -5 3 -10 14 -10 23 0 15 2
15 11 2 9 -12 10 -12 5 4 -4 10 -1 26 6 35 12 14 11 14 -4 2 -20 -15 -25 -2
-6 17 7 7 8 12 2 12 -5 0 -10 14 -10 30 -1 16 3 30 9 30 6 0 2 6 -8 14 -10 7
-19 27 -20 44 -1 18 -4 35 -8 38 -4 4 -7 12 -7 18 0 6 5 4 11 -4 9 -12 10 -11
6 7 -3 14 2 27 12 35 14 11 14 11 4 -3 -10 -13 -10 -16 1 -16 18 0 13 32 -5
32 -8 1 -17 -3 -20 -8 -3 -5 -9 -2 -12 7 -4 9 -1 15 5 13 15 -3 21 21 6 26 -7
2 -5 3 5 2 9 -2 17 1 17 7 0 5 6 6 13 2 7 -5 7 -1 -2 10 -13 15 -13 19 0 27 8
5 9 9 4 9 -6 0 -15 -4 -21 -10 -6 -6 -15 -5 -24 1 -13 9 -12 10 3 5 11 -3 17
0 17 9 0 8 5 14 12 13 7 -2 12 10 13 30 2 26 0 30 -11 21 -16 -13 -19 -23 -4
-14 5 3 10 2 10 -4 0 -6 -10 -16 -22 -22 -21 -11 -22 -11 -9 4 7 10 10 17 7
17 -4 0 -1 10 6 23 7 12 11 28 9 36 -1 8 2 10 11 5 9 -6 9 -3 -1 10 -13 15
-13 19 0 27 8 5 9 9 4 9 -6 0 -15 -4 -21 -10 -6 -6 -15 -5 -24 1 -12 9 -12 10
4 5 15 -5 18 -2 14 19 -3 16 1 30 11 37 14 11 14 11 4 -3 -10 -13 -10 -16 1
-16 18 0 13 32 -5 32 -8 1 -17 -3 -20 -8 -3 -5 -9 -2 -12 7 -4 9 -1 15 5 13
15 -3 21 21 6 26 -7 2 -5 3 5 2 9 -2 17 1 17 7 0 5 6 6 13 2 7 -5 7 -1 -2 10
-13 15 -13 19 0 27 8 5 9 9 4 9 -6 0 -15 -4 -21 -10 -6 -6 -15 -5 -24 1 -13 9
-12 10 3 5 11 -3 17 0 17 9 0 8 5 14 12 13 7 -2 12 10 13 30 2 26 0 30 -11 21
-16 -13 -19 -23 -4 -14 5 3 10 2 10 -4 0 -6 -10 -16 -22 -22 -21 -11 -22 -11
-9 4 7 10 10 17 7 17 -4 0 -1 10 6 23 7 12 11 28 9 36 -1 8 2 10 11 5 9 -6 9
-3 -1 10 -13 15 -13 19 0 27 8 5 9 9 4 9 -6 0 -15 -4 -21 -10 -6 -6 -15 -5
-24 1 -12 9 -12 10 4 5 15 -5 17 -2 13 14 -4 16 -3 19 7 10 10 -7 17 -6 27 7
13 17 13 17 -5 3 -18 -14 -19 -13 -13 3 4 10 3 16 -2 13 -5 -3 -12 1 -15 10
-3 8 -2 13 3 10 5 -3 12 2 16 12 12 27 14 43 5 37 -12 -8 -8 39 4 47 6 4 3 15
-9 28 -14 15 -20 17 -26 8 -4 -7 -10 -10 -14 -7 -3 3 5 14 17 25 12 10 18 13
13 5 -5 -9 -4 -12 3 -7 5 3 13 0 15 -6 4 -9 6 -10 6 -1 1 6 -3 15 -9 18 -5 3
-10 14 -10 23 0 15 2 15 11 2 9 -12 10 -12 5 4 -4 10 -1 26 6 35 12 14 11 14
-4 2 -20 -15 -25 -2 -6 17 7 7 8 12 2 12 -5 0 -10 14 -10 30 -1 17 3 30 9 30
6 0 2 6 -8 14 -10 7 -19 26 -20 42 -1 16 -5 36 -10 43 -6 10 -4 12 5 6 10 -6
12 -4 6 10 -5 14 -4 16 7 6 11 -9 17 -7 28 6 13 17 13 17 -5 3 -18 -14 -19
-13 -13 3 4 10 3 16 -2 13 -5 -3 -12 1 -15 10 -3 8 -2 13 3 10 5 -3 12 2 16
12 12 27 14 43 5 37 -12 -8 -8 39 4 47 6 4 3 15 -9 28 -14 15 -20 17 -26 8 -4
-7 -10 -10 -14 -7 -3 3 5 14 17 25 12 10 18 13 13 5 -5 -9 -4 -12 3 -7 5 3 13
0 15 -6 4 -9 6 -10 6 -1 1 6 -3 15 -9 18 -5 3 -10 14 -10 23 0 15 2 15 11 2 9
-12 10 -12 5 4 -4 10 -1 26 6 35 12 14 11 14 -4 2 -20 -15 -25 -2 -6 17 7 7 8
12 2 12 -5 0 -10 14 -10 30 -1 17 3 30 9 30 6 0 2 6 -8 14 -10 7 -19 26 -20
42 -1 16 -4 35 -8 41 -9 14 2 21 24 18 17 -3 19 10 6 33 -8 12 -2 16 18 13 6
-1 2 5 -8 13 -11 9 -14 16 -7 19 6 3 5 4 -2 3 -7 -2 -12 -10 -10 -20 4 -22 -5
-20 -19 5 -8 15 -8 19 0 15 15 -10 9 27 -8 47 -10 13 -9 15 6 13 11 -2 18 -11
17 -23 -1 -11 4 -20 11 -20 7 0 12 7 10 16 -1 9 3 20 9 24 7 6 4 7 -6 3 -19
-6 -25 13 -8 30 6 6 5 15 -1 24 -9 12 -10 12 -5 -3 4 -12 2 -16 -6 -11 -6 4
-8 3 -4 -4 3 -6 2 -13 -3 -17 -6 -3 -8 4 -5 17 10 43 9 53 -4 50 -8 -1 -11 2
-7 8 3 6 11 8 16 4 13 -8 61 -104 52 -104 -5 0 -2 -4 5 -9 8 -5 15 -20 15 -34
1 -14 5 -23 9 -21 7 4 44 -86 40 -98 -1 -5 3 -8 9 -8 6 0 8 -7 5 -17 -4 -10
-4 -14 0 -10 9 9 46 -72 38 -84 -3 -5 0 -9 6 -9 11 0 31 -43 33 -72 1 -9 3
-15 6 -13 6 7 74 -147 75 -172 0 -11 4 -19 7 -17 10 6 20 -26 12 -38 -3 -7 -1
-8 5 -4 11 6 17 -12 13 -36 0 -5 3 -8 8 -8 10 0 21 -27 20 -44 0 -5 3 -12 8
-15 14 -10 44 -82 38 -92 -4 -5 -1 -9 5 -9 7 0 9 -7 6 -16 -3 -8 -2 -12 3 -9
12 7 25 -31 16 -45 -4 -6 -1 -9 6 -8 7 2 14 -1 14 -7 1 -5 12 -32 24 -60 12
-27 23 -54 24 -60 1 -5 4 -12 7 -15 13 -13 30 -63 24 -72 -4 -6 -2 -8 3 -5 14
9 37 -48 27 -64 -4 -7 -3 -10 4 -5 10 6 23 -17 21 -38 0 -5 4 -12 11 -16 6 -4
12 -17 13 -28 1 -12 5 -22 10 -22 5 0 6 -7 3 -16 -3 -8 -2 -13 3 -10 7 5 16
-16 24 -54 0 -3 7 -11 14 -18 16 -17 18 -46 1 -36 -6 4 -8 3 -5 -4 4 -5 15 -8
25 -6 9 3 28 0 42 -5 23 -10 22 -11 -10 -6 -35 6 -35 6 -10 -9 14 -8 28 -12
32 -10 5 3 8 0 8 -6 0 -7 -7 -10 -15 -7 -8 4 -17 1 -21 -5 -5 -7 -2 -8 6 -3 9
6 12 4 8 -7 -4 -8 -2 -21 4 -29 8 -11 9 -11 5 3 -6 16 20 35 31 23 3 -3 1 -5
-4 -5 -5 0 -10 -9 -11 -21 -2 -17 1 -18 13 -9 17 15 19 -1 2 -20 -7 -8 -3 -7
8 3 24 20 74 32 74 18 0 -5 -8 -8 -17 -6 -21 3 -43 -12 -43 -29 0 -6 5 -4 10
4 5 8 10 11 10 6 0 -5 6 -3 14 3 10 8 16 9 21 1 3 -6 12 -7 18 -3 21 13 49 14
41 1 -4 -7 -3 -8 5 -4 6 4 9 12 6 17 -4 5 -1 9 4 9 6 0 11 -4 11 -10 0 -5 7
-7 15 -4 8 4 12 10 9 15 -3 5 2 6 10 3 8 -3 13 -14 11 -26 -3 -11 -1 -18 2
-14 7 6 11 24 15 58 2 16 4 16 20 1 11 -10 18 -12 18 -5 0 7 -5 12 -12 12 -6
0 -8 3 -5 6 3 4 2 16 -4 27 -9 15 -8 18 2 12 8 -6 11 -4 7 7 -4 8 0 15 7 15
10 0 11 -5 5 -17 -6 -11 -5 -17 3 -17 7 0 14 11 15 24 2 31 29 71 50 75 13 3
12 5 -6 10 -14 4 -20 2 -15 -4 3 -7 1 -8 -6 -4 -6 4 -9 11 -6 16 3 4 -1 11 -7
13 -7 3 3 4 22 1 19 -2 29 -2 22 2 -6 3 -10 10 -7 15 4 5 -1 6 -9 3 -16 -6
-17 19 -1 33 4 4 5 2 1 -4 -9 -17 30 -18 40 -1 5 8 2 9 -9 5 -10 -3 -17 -3
-17 1 0 12 17 34 26 35 5 1 7 7 6 12 -4 12 -5 15 -3 40 1 16 3 17 10 6 7 -11
14 -9 34 15 14 15 22 34 20 41 -8 20 -22 15 -18 -6 2 -11 -3 -25 -11 -32 -17
-14 -18 -5 -4 22 8 14 7 19 -2 19 -11 0 -11 2 0 8 7 5 14 18 17 30 6 33 14 42
30 35 11 -4 13 -1 9 11 -3 9 -11 13 -18 9 -6 -4 -5 1 3 10 7 9 19 17 25 17 6
0 5 -4 -3 -9 -7 -5 -9 -11 -5 -14 5 -3 15 1 22 9 8 9 9 14 2 14 -6 0 -8 5 -5
10 4 6 10 8 15 5 5 -3 11 -1 15 4 3 6 -3 8 -13 6 -10 -2 -25 1 -33 6 -12 7
-12 9 1 10 8 1 21 2 29 3 17 1 28 26 11 26 -6 0 -8 -4 -5 -10 4 -6 -1 -7 -11
-3 -16 6 -15 8 4 16 28 13 29 27 2 22 -11 -2 -18 0 -15 5 3 4 16 7 30 5 14 -1
25 2 25 7 0 5 4 7 8 4 5 -3 8 8 8 24 0 16 -3 27 -7 24 -4 -2 -11 1 -15 7 -4 7
-3 9 3 6 14 -9 24 17 17 41 -5 15 -4 15 6 -1 11 -18 12 -18 26 0 16 22 18 33
3 33 -5 0 -8 -4 -4 -9 3 -5 0 -13 -6 -17 -8 -4 -9 -3 -5 4 4 7 1 12 -6 12 -8
0 -7 4 4 10 10 6 15 19 13 31 -4 17 -2 19 10 9 18 -15 20 -24 3 -14 -9 5 -9 2
1 -9 18 -23 21 -21 15 6 -15 62 -12 79 12 70 12 -4 12 -7 -3 -19 -14 -9 -15
-16 -7 -24 9 -9 14 -9 19 1 5 8 4 10 -3 5 -7 -4 -12 -3 -12 2 0 6 7 13 16 16
15 6 15 8 2 24 -16 18 -14 42 3 42 6 0 8 -4 5 -8 -2 -4 0 -14 6 -22 8 -12 9
-12 4 2 -6 20 10 34 17 16 3 -7 4 -3 4 9 -1 12 -4 20 -7 18 -3 -2 -10 7 -16
20 -11 23 -11 23 11 9 22 -14 23 -14 18 5 -3 12 -9 19 -13 16 -5 -3 -11 -1
-14 4 -4 5 5 8 18 7 14 -2 27 3 30 11 3 8 2 12 -3 9 -5 -3 -12 1 -15 10 -3 8
-2 12 4 9 6 -3 10 -1 10 6 0 7 7 4 16 -7 15 -18 15 -18 5 2 -12 24 13 69 31
58 6 -4 8 -2 4 4 -3 5 0 13 6 15 10 4 10 6 0 6 -7 1 -10 6 -7 11 3 6 1 10 -5
10 -7 0 -9 -7 -6 -16 4 -10 2 -13 -6 -8 -7 5 -8 2 -3 -7 5 -8 4 -10 0 -6 -17
15 -13 36 7 43 12 4 17 11 14 21 -4 10 -2 13 8 10 8 -3 19 0 25 7 8 9 7 13 -4
13 -8 0 -11 -5 -8 -10 3 -6 1 -7 -5 -4 -12 8 -10 32 3 44 4 4 5 2 1 -4 -4 -7
-2 -13 3 -13 6 0 11 5 11 11 0 5 4 8 9 4 6 -3 6 6 1 25 -6 19 -5 32 2 36 7 4
8 2 4 -4 -4 -7 -2 -12 3 -12 6 0 11 7 11 15 0 8 5 15 11 15 5 0 7 5 3 11 -4 8
-9 7 -15 -2 -4 -7 -11 -10 -16 -5 -4 4 0 12 10 17 9 6 15 15 12 20 -4 5 -11 6
-17 3 -7 -5 -8 -2 -3 5 5 9 10 10 18 2 14 -14 37 -14 37 0 0 5 -4 8 -9 5 -5
-3 -15 2 -22 12 -13 15 -12 16 4 3 20 -15 23 -2 5 19 -7 8 -3 6 10 -4 12 -11
25 -16 29 -13 3 4 1 7 -5 7 -7 0 -12 8 -12 18 0 10 -6 24 -12 31 -9 10 -9 12
-1 7 6 -3 15 -2 18 4 5 8 11 7 21 -1 12 -10 13 -9 8 5 -5 12 -2 15 12 10 16
-5 16 -4 4 5 -13 10 -13 12 0 21 9 6 10 10 3 10 -7 0 -16 -8 -22 -17 -9 -16
-10 -16 -8 4 0 12 4 20 7 18 3 -2 12 6 19 17 11 18 11 20 -3 15 -8 -3 -18 -2
-21 4 -4 5 -3 9 2 8 21 -4 34 2 27 13 -4 6 -3 8 4 5 11 -8 11 -25 -1 -44 -5
-8 -4 -13 2 -13 8 0 11 -331 11 -1095 l0 -1095 23 -1 c58 -2 78 -13 57 -32 -9
-8 -11 -8 -6 0 3 6 1 15 -6 19 -7 4 -10 4 -6 -1 4 -4 2 -15 -5 -23 -8 -10 -8
-13 -1 -9 17 10 27 -24 12 -36 -9 -6 -6 -7 9 -4 14 3 20 1 17 -8 -5 -11 21
-40 35 -40 3 0 5 -4 3 -10 -2 -5 0 -6 5 -2 4 5 8 13 8 19 0 6 11 13 25 14 24
4 24 3 6 -11 -11 -8 -15 -15 -9 -15 7 0 15 5 18 10 4 6 12 7 18 3 7 -3 3 4 -8
17 l-20 23 22 -12 c26 -13 46 -14 38 -2 -3 5 -1 12 4 16 6 3 8 -6 5 -21 -4
-23 -3 -25 10 -15 8 7 12 20 10 29 -5 15 -4 15 6 0 6 -9 17 -15 24 -12 8 3 17
1 21 -5 3 -7 0 -8 -9 -5 -10 4 -16 1 -16 -7 0 -7 3 -9 7 -6 3 4 12 2 19 -4 9
-8 12 -4 10 14 -3 24 2 25 57 18 4 -1 7 -6 7 -12 0 -6 -5 -7 -12 -2 -21 13
-35 12 -35 -3 0 -10 4 -11 13 -3 8 6 14 7 18 0 14 -23 76 8 76 38 -1 13 -3 12
-12 -4 -12 -21 -30 -36 -36 -30 -7 7 43 50 55 47 7 -2 13 2 13 8 0 5 -6 10
-13 10 -9 0 -12 27 -12 104 0 79 3 102 13 99 8 -3 10 0 6 10 -3 9 -13 14 -22
11 -9 -2 -4 2 12 10 16 7 31 21 32 30 1 9 -2 14 -7 10 -5 -3 -6 -10 -3 -16 4
-6 -1 -8 -11 -6 -25 4 -31 28 -8 28 14 0 15 2 4 9 -11 7 -10 10 5 14 17 4 17
5 1 6 -11 1 -16 6 -12 13 4 7 -1 4 -11 -7 -15 -18 -16 -18 -10 -2 3 10 6 21 6
23 0 2 7 4 15 4 8 0 15 -4 15 -10 0 -5 5 -10 11 -10 6 0 0 14 -12 31 -20 29
-21 32 -5 41 17 10 13 28 -7 28 -7 0 -6 -4 3 -10 8 -5 11 -10 5 -10 -5 0 -16
4 -24 9 -11 7 -9 10 8 16 28 9 27 28 -1 20 -23 -7 -23 -7 -3 9 l20 16 -20 -6
c-11 -3 -16 -2 -10 3 15 12 19 47 4 37 -8 -4 -10 -3 -5 4 4 7 15 12 24 12 14
0 14 2 3 9 -11 7 -10 10 5 14 17 4 17 5 1 6 -11 1 -16 6 -12 14 4 6 -1 3 -11
-8 -15 -18 -16 -18 -10 -2 3 10 6 21 6 23 0 2 7 4 15 4 8 0 15 -4 15 -10 0 -5
5 -10 11 -10 6 0 0 14 -12 31 -20 29 -21 32 -5 41 17 10 13 28 -7 28 -7 0 -6
-4 3 -10 8 -5 11 -10 5 -10 -5 0 -16 4 -24 9 -11 7 -9 10 8 16 28 9 27 28 -1
20 -23 -7 -23 -7 -3 9 l20 16 -20 -6 c-11 -3 -16 -2 -10 3 15 12 19 47 4 37
-8 -4 -10 -3 -5 4 4 7 15 12 24 13 11 0 13 2 4 6 -10 4 -9 8 3 17 15 10 14 12
-4 12 -12 0 -21 -5 -21 -10 0 -5 -2 -7 -5 -4 -8 8 6 38 17 38 5 0 6 -4 3 -10
-3 -6 1 -7 10 -3 9 3 13 9 8 12 -5 3 -9 19 -8 34 1 15 -1 30 -5 32 -4 3 -6 -8
-5 -24 1 -17 -3 -28 -11 -28 -7 0 -10 5 -6 11 12 18 10 309 -2 326 -10 13 -9
13 7 1 15 -12 20 -12 30 -1 8 8 8 11 1 7 -14 -8 -37 17 -26 28 4 5 -2 5 -13 2
-20 -7 -20 -7 -1 8 11 8 23 15 28 15 4 0 8 5 8 11 0 5 -5 7 -11 4 -6 -4 -9 0
-7 11 2 11 9 22 17 25 8 3 15 13 17 22 1 10 -2 15 -7 11 -5 -3 -7 -10 -4 -15
4 -5 -1 -9 -9 -9 -8 0 -20 -8 -25 -17 -6 -10 -11 -13 -11 -6 0 6 7 19 16 27
14 15 11 21 -10 17 -10 -2 12 29 28 40 5 4 -1 10 -12 13 -21 7 -21 7 -1 27 21
21 25 39 9 39 -6 0 -9 -5 -8 -11 2 -6 -4 -14 -12 -16 -13 -4 -13 -3 0 6 13 10
13 11 0 11 -9 0 -11 3 -5 8 16 11 19 45 3 37 -7 -3 -4 1 6 9 11 9 16 16 11 16
-4 0 0 9 9 19 11 12 13 21 7 25 -6 4 -8 13 -4 21 3 8 0 15 -7 15 -6 0 -9 -4
-6 -8 3 -5 -1 -9 -9 -9 -12 0 -12 4 -3 16 7 9 19 22 27 29 16 13 25 46 10 36
-5 -3 -6 -10 -3 -16 5 -8 1 -9 -10 -5 -10 4 -15 3 -11 -3 3 -5 -1 -7 -9 -4
-12 5 -10 11 12 30 25 23 25 24 4 14 -13 -6 -26 -9 -30 -6 -3 3 1 6 9 6 11 0
11 2 -1 10 -8 5 -10 10 -5 10 6 0 11 9 12 20 1 13 -2 18 -9 14 -7 -4 -8 -2 -4
4 4 7 17 12 29 13 16 0 18 2 7 7 -17 8 -25 32 -10 32 5 0 10 -4 10 -10 0 -5 5
-10 12 -10 8 0 5 7 -5 18 -17 16 -19 16 -33 -2 -8 -11 -14 -16 -14 -10 0 18
17 35 38 37 11 0 19 4 17 8 -3 3 -15 5 -28 4 -15 -2 -24 2 -24 11 0 10 4 11
14 3 9 -8 13 -8 13 -1 0 6 -5 14 -10 17 -6 4 -7 11 -4 17 5 8 1 9 -12 5 -18
-7 -18 -7 0 8 11 8 23 15 28 15 4 0 8 5 8 11 0 5 -5 7 -11 4 -6 -4 -9 0 -7 11
2 11 9 22 17 25 8 3 15 13 17 22 1 10 -2 15 -7 11 -5 -3 -7 -10 -4 -15 4 -5
-1 -9 -9 -9 -8 0 -20 -8 -25 -17 -6 -10 -11 -13 -11 -6 0 6 7 19 16 27 14 15
11 21 -10 17 -10 -2 12 29 28 40 5 4 -1 10 -12 13 -21 7 -21 7 -1 27 21 21 25
39 9 39 -6 0 -9 -5 -8 -11 2 -6 -4 -14 -12 -16 -13 -4 -13 -3 0 6 13 10 13 11
0 11 -9 0 -11 3 -5 8 16 11 19 45 3 37 -7 -3 -4 1 6 9 11 9 16 16 11 16 -4 0
0 9 9 19 11 12 13 21 7 25 -6 4 -8 13 -4 21 3 8 0 15 -7 15 -6 0 -9 -4 -6 -8
3 -5 -1 -9 -9 -9 -12 0 -12 4 -3 16 7 9 19 22 27 29 16 13 25 46 10 36 -5 -3
-6 -10 -3 -16 5 -8 1 -9 -10 -5 -10 4 -15 3 -11 -3 3 -5 -1 -7 -9 -4 -12 5
-10 11 12 30 25 23 25 24 4 14 -13 -6 -26 -9 -30 -6 -3 3 1 6 9 6 11 0 11 2
-1 10 -8 5 -10 10 -5 10 6 0 11 9 12 20 1 13 -2 18 -9 14 -7 -4 -8 -2 -4 4 4
7 17 12 29 13 16 0 18 2 7 7 -17 8 -25 32 -10 32 5 0 10 -4 10 -10 0 -5 5 -10
12 -10 8 0 5 7 -5 18 -17 16 -19 16 -33 -2 -8 -11 -14 -16 -14 -10 0 18 17 35
38 37 11 0 19 4 17 8 -3 3 -16 5 -30 3 -19 -2 -24 1 -17 9 5 7 8 85 8 175 -1
89 2 162 7 162 4 0 5 -4 2 -10 -3 -5 -2 -10 4 -10 5 0 13 5 16 10 3 6 1 10 -5
10 -6 0 -8 5 -4 12 4 6 3 8 -4 4 -13 -8 -12 36 1 45 5 3 2 9 -7 12 -9 4 -15 1
-13 -5 1 -6 -4 -13 -11 -15 -6 -3 -10 1 -9 9 2 7 2 10 0 6 -3 -5 -11 -8 -19
-8 -10 0 -14 15 -14 60 l0 60 -268 0 -269 0 -13 -27 c-7 -16 -131 -301 -275
-634 -145 -333 -272 -626 -283 -650 -11 -24 -36 -82 -56 -129 -58 -134 -71
-159 -77 -160 -10 0 -5 45 6 52 6 4 2 8 -7 8 -10 0 -18 -5 -18 -12 0 -6 -3 -9
-6 -6 -10 11 16 49 29 42 7 -4 9 -3 4 1 -4 5 -18 10 -30 12 -17 2 -19 1 -7 -7
8 -5 10 -10 4 -10 -19 0 -23 11 -14 36 8 19 6 24 -6 24 -9 0 -12 -5 -8 -12 4
-6 3 -8 -4 -4 -6 3 -9 18 -6 32 3 15 1 23 -5 20 -5 -4 -13 -1 -17 5 -4 7 -3 9
4 5 6 -3 13 -2 17 4 3 5 -1 10 -9 10 -10 0 -13 6 -9 17 4 10 2 14 -4 10 -6 -4
-16 -1 -22 6 -8 10 -7 14 4 14 8 0 11 -5 8 -10 -4 -6 -1 -7 7 -2 10 6 9 11 -5
21 -10 7 -22 11 -28 7 -6 -3 -7 -2 -4 3 3 6 2 16 -3 24 -5 9 -4 20 3 29 9 12
9 13 0 7 -8 -4 -13 -2 -13 4 0 6 -4 9 -9 6 -5 -3 -9 0 -8 7 1 39 -5 56 -23 62
-19 6 -18 7 7 29 19 17 22 23 10 23 -9 0 -14 -4 -11 -9 3 -4 -2 -8 -11 -8 -11
0 -15 5 -11 15 3 8 2 14 -2 12 -4 -1 -7 1 -7 4 0 4 -8 16 -18 27 -12 13 -15
22 -8 27 6 3 11 11 11 17 0 7 -5 6 -14 -1 -12 -10 -13 -8 -9 10 4 15 3 20 -5
15 -7 -4 -12 -2 -12 3 0 6 6 11 13 11 8 0 7 3 -3 9 -8 6 -18 7 -24 4 -5 -3 -6
-1 -2 6 4 6 3 18 -4 26 -12 15 3 31 20 20 6 -3 10 -4 10 -1 0 3 -10 10 -21 17
-15 8 -19 8 -15 0 4 -6 2 -11 -3 -11 -12 0 -14 13 -4 24 11 10 12 37 2 30 -5
-3 -6 -11 -2 -17 3 -7 -3 -3 -15 7 -17 15 -19 22 -11 33 9 10 7 13 -6 13 -10
0 -15 3 -12 7 4 3 1 13 -5 22 -7 9 -2 7 11 -4 14 -11 21 -15 18 -8 -4 6 -4 13
0 16 5 2 3 3 -3 1 -7 -1 -21 6 -33 17 -17 16 -19 24 -11 39 6 11 7 20 3 20 -4
0 -1 5 7 10 9 6 10 10 3 10 -6 0 -18 6 -25 13 -7 7 -22 19 -33 26 -18 11 -18
12 -1 7 16 -6 17 -4 6 9 -7 8 -17 12 -23 8 -6 -3 -7 -1 -3 5 4 7 1 12 -6 12
-8 0 -5 5 5 11 14 8 22 8 30 -1 10 -10 8 -11 -8 -6 -15 6 -17 4 -8 -5 6 -6 16
-8 23 -4 15 9 -8 38 -26 31 -9 -4 -12 5 -9 30 2 29 0 33 -11 23 -16 -13 -19
-23 -5 -15 11 7 9 -21 -2 -29 -4 -3 -5 -2 -2 2 3 3 0 12 -7 20 -8 10 -8 17 0
25 17 17 15 33 -2 19 -13 -11 -22 -2 -31 32 -2 4 -4 9 -5 12 -1 3 -3 8 -4 13
-8 33 -19 51 -28 46 -7 -4 -8 -2 -4 4 4 6 0 22 -9 36 -15 23 -15 25 2 35 10 6
12 11 6 11 -16 0 -17 30 -1 30 6 0 9 2 6 5 -3 3 -12 3 -21 -1 -13 -5 -14 -10
-6 -25 5 -10 6 -19 2 -19 -4 0 -13 11 -20 25 -7 16 -7 23 -1 19 6 -4 8 -1 6 7
-3 8 -11 13 -17 11 -8 -1 -9 2 -4 10 4 7 6 21 4 32 -2 13 1 16 11 10 7 -4 9
-3 5 1 -14 15 -39 15 -33 -1 8 -21 -2 -17 -14 5 -7 14 -7 22 2 27 7 5 8 3 3
-6 -5 -9 -4 -11 3 -6 15 9 15 11 -5 27 -11 10 -14 10 -9 2 4 -8 2 -13 -4 -13
-7 0 -9 7 -6 16 3 9 6 18 6 21 0 3 8 -1 18 -8 15 -13 16 -12 4 3 -8 9 -19 15
-27 12 -7 -3 -16 0 -21 7 -4 7 -3 10 4 5 6 -3 14 -2 17 4 4 6 3 10 -2 9 -24
-4 -34 7 -66 76 l-36 75 -263 0 -263 0 0 -1455z m2549 1300 c-4 -8 -8 -15 -10
-15 -2 0 -4 7 -4 15 0 8 4 15 10 15 5 0 7 -7 4 -15z m-1662 -580 c2 3 5 -2 5
-10 0 -8 -2 -15 -5 -15 -8 0 -31 34 -31 45 0 6 6 2 13 -7 7 -10 15 -16 18 -13z
m-444 -71 c2 -1 -1 -5 -6 -8 -6 -3 -18 7 -27 22 l-18 27 24 -20 c13 -11 25
-21 27 -21z m2120 11 c-2 -6 -6 -9 -10 -7 -5 1 -8 -3 -8 -10 0 -6 -2 -9 -5 -6
-9 8 6 39 17 36 5 -2 8 -8 6 -13z m-2128 -139 c0 -2 -6 -9 -14 -15 -11 -9 -16
-9 -22 0 -4 7 -3 9 4 5 6 -3 13 -2 17 4 6 10 15 14 15 6z m-4 -56 c1 -16 -2
-27 -7 -24 -7 4 -7 28 0 52 3 9 6 -3 7 -28z m2 -65 c-3 -3 -13 7 -23 22 l-17
28 23 -22 c12 -12 20 -25 17 -28z m-13 -15 c3 -5 1 -10 -4 -10 -6 0 -11 5 -11
10 0 6 2 10 4 10 3 0 8 -4 11 -10z m1473 -70 c-7 -10 -14 -17 -17 -15 -4 4 18
35 25 35 2 0 -1 -9 -8 -20z m-1457 -13 c-13 -13 -26 -3 -16 12 3 6 11 8 17 5
6 -4 6 -10 -1 -17z m-6 -26 c3 -6 -5 -15 -17 -21 -21 -10 -21 -10 -6 3 10 8
15 17 11 20 -3 4 -4 7 0 7 3 0 8 -4 12 -9z m6 -54 c-13 -13 -26 -3 -16 12 3 6
11 8 17 5 6 -4 6 -10 -1 -17z m-1 -181 c0 -2 -6 -9 -14 -15 -11 -9 -16 -9 -22
0 -4 7 -3 9 4 5 6 -3 13 -2 17 4 6 10 15 14 15 6z m2128 -21 c-2 -6 -6 -9 -10
-7 -5 1 -8 -3 -8 -10 0 -6 -2 -9 -5 -6 -9 8 6 39 17 36 5 -2 8 -8 6 -13z
m-2132 -35 c1 -16 -2 -27 -7 -24 -7 4 -7 28 0 52 3 9 6 -3 7 -28z m2 -65 c-3
-3 -13 7 -23 22 l-17 28 23 -22 c12 -12 20 -25 17 -28z m1289 -18 c-6 -19 -23
-18 -23 2 0 11 5 17 14 14 7 -3 11 -10 9 -16z m-1302 3 c3 -5 1 -10 -4 -10 -6
0 -11 5 -11 10 0 6 2 10 4 10 3 0 8 -4 11 -10z m16 -83 c-13 -13 -26 -3 -16
12 3 6 11 8 17 5 6 -4 6 -10 -1 -17z m-18 -47 c-10 -9 -20 -15 -23 -13 -3 3 3
10 12 17 10 7 14 17 10 21 -4 5 -1 5 6 1 11 -6 10 -12 -5 -26z m18 -33 c-13
-13 -26 -3 -16 12 3 6 11 8 17 5 6 -4 6 -10 -1 -17z m1134 -106 c3 -5 2 -12
-3 -15 -5 -3 -9 1 -9 9 0 17 3 19 12 6z m-1141 -40 c4 -5 -3 -7 -14 -4 -23 6
-26 13 -6 13 8 0 17 -4 20 -9z m1056 -211 c-12 -23 -30 -35 -30 -21 0 6 5 11
11 11 6 0 9 9 6 19 -3 14 -1 18 9 14 10 -4 11 -10 4 -23z m-1056 -109 c4 -5
-3 -7 -14 -4 -23 6 -26 13 -6 13 8 0 17 -4 20 -9z m890 -33 c-4 -5 -9 -7 -12
-4 -3 3 -12 0 -21 -7 -14 -10 -14 -10 -4 4 13 16 46 23 37 7z m1240 -146 c3
-5 -1 -9 -9 -9 -8 0 -12 4 -9 9 3 4 7 8 9 8 2 0 6 -4 9 -8z m-2124 -176 c0 -2
-6 -9 -14 -15 -11 -9 -16 -9 -22 0 -4 7 -3 9 4 5 6 -3 13 -2 17 4 6 10 15 14
15 6z m-4 -56 c1 -16 -2 -27 -7 -24 -7 4 -7 28 0 52 3 9 6 -3 7 -28z m2128 -8
c3 -5 -1 -9 -9 -9 -8 0 -12 4 -9 9 3 4 7 8 9 8 2 0 6 -4 9 -8z m-2126 -57 c-3
-3 -13 7 -23 22 l-17 28 23 -22 c12 -12 20 -25 17 -28z m-13 -15 c3 -5 1 -10
-4 -10 -6 0 -11 5 -11 10 0 6 2 10 4 10 3 0 8 -4 11 -10z m16 -83 c-13 -13
-26 -3 -16 12 3 6 11 8 17 5 6 -4 6 -10 -1 -17z m-6 -26 c3 -6 -5 -15 -17 -21
-21 -10 -21 -10 -6 3 10 8 15 17 11 20 -3 4 -4 7 0 7 3 0 8 -4 12 -9z m6 -54
c-13 -13 -26 -3 -16 12 3 6 11 8 17 5 6 -4 6 -10 -1 -17z m-21 -117 c0 -5 -2
-10 -4 -10 -3 0 -8 5 -11 10 -3 6 -1 10 4 10 6 0 11 -4 11 -10z m1836 -54 c13
2 24 0 24 -6 0 -6 -4 -9 -9 -5 -5 3 -12 1 -15 -4 -7 -10 -37 -9 -36 2 1 38 2
42 7 25 3 -11 12 -15 29 -12z m269 14 c-3 -5 -12 -10 -18 -10 -7 0 -6 4 3 10
19 12 23 12 15 0z m-2322 -33 c-2 -4 -10 -3 -17 2 -7 6 -16 8 -19 4 -4 -3 -7
-1 -7 6 0 8 7 11 15 7 8 -3 15 0 15 7 0 8 4 7 9 -3 6 -8 7 -18 4 -23z m57 13
c0 -5 -2 -10 -4 -10 -3 0 -8 5 -11 10 -3 6 -1 10 4 10 6 0 11 -4 11 -10z"/>
<path d="M3439 4239 c-3 -8 -4 -662 -4 -1454 l1 -1440 44 -7 c23 -4 46 -10 49
-14 3 -4 -4 -5 -16 -2 -15 4 -20 2 -16 -8 2 -7 12 -10 21 -7 11 3 13 2 6 -4
-15 -12 -23 -48 -13 -65 4 -8 18 -14 31 -13 13 1 27 -3 31 -9 6 -7 7 -6 4 4
-2 8 -8 15 -13 15 -24 2 -54 17 -49 26 4 5 13 2 22 -7 11 -11 18 -12 23 -4 5
8 9 7 14 -5 3 -9 10 -13 16 -10 6 4 7 12 3 18 -5 9 -3 9 8 1 8 -6 24 -10 36
-9 12 1 20 -2 17 -7 -3 -4 0 -8 6 -8 6 0 8 -5 4 -12 -5 -9 -2 -9 9 1 13 11 17
11 17 1 0 -8 3 -10 7 -6 5 4 0 14 -10 21 -10 7 -14 16 -9 19 6 3 13 -1 16 -10
3 -8 10 -12 16 -9 19 12 60 16 60 6 0 -6 -9 -8 -20 -6 -11 2 -18 0 -15 -5 3
-6 -1 -7 -9 -4 -10 4 -16 1 -16 -7 0 -7 3 -9 7 -6 3 4 12 2 20 -5 8 -6 13 -7
12 -2 -4 21 2 26 18 13 11 -10 14 -10 9 -2 -4 8 -1 13 9 13 10 0 13 -5 9 -12
-4 -8 -3 -10 2 -5 5 5 9 14 9 20 0 6 17 12 37 12 20 1 35 -2 33 -6 -3 -3 -18
-5 -35 -4 -25 2 -28 0 -19 -11 6 -8 16 -11 23 -7 6 4 19 9 30 10 16 3 17 1 5
-14 -13 -16 -12 -17 4 -4 10 8 16 20 13 27 -3 7 -1 16 5 19 5 4 9 3 8 -2 -4
-23 3 -31 24 -26 18 4 20 3 7 -7 -13 -10 -12 -11 5 -5 11 4 30 10 42 12 13 3
20 10 16 16 -3 6 -1 7 5 3 7 -4 12 -1 12 6 0 10 3 9 9 -2 11 -16 4 -33 -10
-25 -5 4 -9 2 -9 -3 0 -5 15 -9 33 -9 17 0 26 2 20 5 -7 2 -13 8 -13 13 0 6 7
6 18 1 9 -5 27 -8 40 -6 16 3 21 0 16 -8 -4 -7 -3 -8 5 -4 6 4 9 12 6 17 -4 5
-1 9 4 9 6 0 11 -5 11 -10 0 -6 13 -8 32 -5 29 5 30 4 17 -12 -13 -17 -13 -17
4 -4 10 8 16 20 13 27 -3 7 -1 16 5 19 5 4 9 3 8 -2 -4 -23 3 -31 24 -26 18 4
20 3 7 -7 -13 -10 -12 -11 5 -5 11 4 30 10 42 12 13 3 20 10 16 16 -3 5 -1 7
5 3 5 -3 12 -1 14 6 3 8 7 6 11 -5 3 -9 1 -19 -5 -23 -7 -5 -8 -2 -3 6 5 9 4
11 -3 6 -21 -13 -12 -23 20 -23 18 0 27 2 20 4 -6 3 -12 9 -12 14 0 4 7 5 17
2 11 -4 14 -3 9 5 -4 7 -2 12 5 12 6 0 9 -8 7 -18 -3 -11 0 -19 7 -19 8 0 11
7 7 16 -4 14 -2 13 15 -2 11 -9 24 -17 29 -17 5 0 2 5 -6 10 -13 8 -13 10 2
10 9 0 24 10 32 22 18 26 21 17 5 -14 -8 -15 -8 -19 0 -14 6 4 11 2 11 -3 0
-6 5 -11 11 -11 8 0 7 6 -2 16 -12 15 -11 16 11 9 l25 -8 -20 24 -20 24 21
-18 c24 -20 38 -22 29 -4 -4 6 0 4 7 -5 15 -17 41 -19 55 -3 4 4 3 5 -4 2 -8
-5 -9 0 -5 15 5 19 7 20 10 6 4 -20 17 -24 27 -8 8 13 25 13 25 -1 0 -5 -5 -7
-12 -3 -7 5 -8 3 -3 -6 5 -8 4 -11 -2 -7 -6 4 -17 -1 -24 -11 -13 -15 -12 -16
4 -3 9 7 17 10 17 6 0 -4 6 -2 14 4 8 7 16 8 18 4 3 -4 4 -3 2 4 -3 12 34 11
54 -1 8 -5 10 -2 6 8 -3 9 -10 14 -14 11 -5 -3 -11 -1 -14 4 -4 5 2 8 11 6 10
-1 23 0 28 4 6 3 15 6 20 6 6 0 9 10 9 23 -1 13 1 20 5 17 3 -4 6 -12 6 -17 0
-6 6 -13 14 -16 9 -3 11 0 6 8 -5 8 -4 11 3 6 6 -4 9 -13 6 -20 -3 -8 -1 -17
5 -21 7 -4 8 0 4 11 -4 10 -2 15 3 11 6 -3 16 -2 24 3 9 5 20 4 29 -3 12 -9
13 -9 8 0 -5 7 2 19 18 29 13 9 23 19 21 23 -3 4 5 8 16 8 19 2 19 1 3 -11
-14 -10 -15 -15 -5 -21 9 -6 11 -4 5 5 -6 10 -4 12 8 7 9 -3 16 -3 16 1 -1 4
-1 16 0 26 1 20 1 20 16 0 14 -18 14 -17 5 11 l-10 30 19 -23 c11 -12 22 -22
26 -22 4 0 2 6 -4 14 -8 10 -9 16 -1 21 6 3 8 10 5 15 -6 10 28 5 48 -6 9 -6
9 -4 -1 8 -10 12 -9 18 3 28 8 7 15 9 15 4 1 -5 9 1 20 14 10 12 21 18 25 13
6 -11 -34 -37 -50 -32 -5 1 -4 -3 3 -11 11 -11 14 -10 21 1 5 7 14 10 20 7 7
-5 10 -2 9 6 -2 7 3 12 10 10 10 -2 10 2 3 17 -9 17 -8 19 15 16 19 -2 24 1
19 12 -3 10 -1 13 8 10 8 -3 19 -2 26 3 10 5 9 9 -4 13 -11 5 -14 3 -9 -6 5
-9 4 -9 -6 0 -10 9 -10 15 3 27 14 14 16 14 21 0 5 -13 9 -14 21 -4 8 7 12 17
8 23 -4 6 0 8 10 4 9 -3 19 -1 23 5 4 6 3 8 -2 5 -6 -3 -16 3 -22 14 -12 19
-11 19 8 9 17 -9 20 -8 20 9 0 11 -6 22 -12 25 -7 3 -3 3 8 1 14 -4 24 0 27 9
4 9 15 13 29 10 l23 -5 -23 10 c-12 6 -30 8 -40 5 -9 -3 1 5 24 18 23 13 39
29 37 36 -3 6 -9 10 -13 7 -5 -3 -12 0 -16 7 -4 7 -4 10 1 6 4 -4 14 -3 21 3
8 7 14 6 20 -2 5 -8 3 -9 -6 -4 -9 5 -11 4 -6 -3 13 -21 25 -13 23 16 -2 20 2
26 15 24 9 -1 19 2 23 8 3 6 0 7 -9 4 -21 -8 -20 5 2 29 9 11 11 17 5 13 -8
-4 -13 -1 -13 9 0 9 5 13 10 10 6 -3 10 -1 10 4 0 6 -4 11 -10 11 -5 0 0 11
12 25 11 13 26 22 31 18 6 -3 7 -1 3 6 -5 8 -12 9 -20 2 -8 -7 -16 -4 -26 12
-12 19 -11 21 2 10 22 -18 30 -4 10 16 -10 9 -11 12 -3 6 12 -8 13 -6 8 10 -6
18 -5 17 12 -3 18 -21 20 -21 18 -3 0 11 -5 17 -9 15 -8 -5 -9 -2 -12 34 -1 9
-5 23 -10 30 -4 7 -3 19 3 26 6 7 7 17 3 21 -4 5 -1 5 6 0 10 -5 11 -10 3 -18
-15 -15 -14 -30 1 -21 7 5 8 3 3 -6 -5 -8 -4 -11 3 -6 6 4 8 14 5 23 -5 12 -3
14 8 8 11 -6 12 -5 2 6 -15 16 -17 33 -3 24 6 -4 7 2 1 18 -7 17 -6 29 2 38
10 11 9 11 -5 0 -10 -7 -18 -10 -19 -5 -5 56 -4 82 3 78 5 -3 6 -10 3 -15 -4
-5 -1 -9 5 -9 6 0 8 10 4 25 -5 21 -3 24 12 19 15 -5 16 -4 4 4 -8 6 -19 8
-25 4 -5 -3 -19 -8 -30 -9 -16 -2 -17 -1 -5 6 8 5 17 8 20 6 3 -2 12 5 19 17
7 11 8 17 2 13 -14 -8 -14 0 0 28 9 20 9 20 -4 5 -19 -24 -30 -23 -18 1 6 10
8 21 5 24 -3 3 -7 13 -8 22 -1 9 -8 20 -16 25 -7 4 -10 15 -7 24 3 8 1 18 -5
22 -7 4 -8 3 -4 -4 4 -7 2 -12 -4 -12 -7 0 -9 7 -6 16 3 9 6 18 6 21 0 3 8 -1
18 -8 15 -13 16 -12 3 4 -10 13 -17 14 -26 7 -10 -8 -15 -8 -21 1 -4 8 -3 9 4
5 7 -4 12 -1 12 9 0 10 5 13 13 9 8 -5 8 -2 -2 9 -7 9 -19 17 -25 17 -6 0 -5
-4 3 -9 7 -5 9 -11 4 -14 -5 -3 -15 3 -22 15 -7 11 -8 17 -2 13 6 -3 11 -1 11
5 0 7 7 9 16 6 9 -3 12 -2 9 5 -4 5 -15 7 -25 4 -10 -3 -22 0 -26 6 -4 7 -3 9
3 6 5 -3 10 0 10 7 0 8 -6 12 -14 9 -8 -3 -13 2 -13 14 0 11 -11 32 -25 47
-14 15 -25 32 -25 38 0 20 -102 127 -163 173 -34 25 -67 50 -74 55 -7 6 -17
10 -23 10 -7 0 -10 6 -7 13 2 6 10 11 16 9 7 -1 10 2 6 8 -3 6 -12 7 -18 3 -8
-5 -8 -2 0 9 7 8 9 19 5 23 -4 5 -1 5 6 1 7 -4 10 -11 8 -15 -3 -4 4 -12 15
-19 18 -11 18 -11 7 8 -10 16 -10 22 1 32 12 11 13 10 8 -4 -3 -10 -3 -19 1
-22 7 -4 11 10 14 52 1 9 6 9 23 -2 19 -13 22 -12 22 2 0 10 -5 23 -11 31 -8
11 -8 13 1 7 18 -10 53 -16 52 -8 -3 20 2 32 11 27 6 -3 7 1 4 10 -4 9 -3 15
2 13 5 -2 11 2 12 7 2 6 8 15 13 22 11 13 -5 28 -20 18 -5 -3 -13 0 -17 6 -4
7 -3 9 2 6 13 -8 39 9 39 25 0 7 10 13 22 13 12 0 25 4 30 9 5 5 3 6 -4 2 -7
-4 -13 -4 -14 1 0 4 -2 18 -3 30 -2 15 2 19 12 15 11 -4 13 -1 8 9 -4 8 0 5 8
-5 20 -25 21 -7 2 20 -10 13 -11 23 -4 31 6 7 7 13 3 13 -4 0 -2 7 5 15 6 8 9
19 5 25 -4 6 -1 9 6 8 16 -4 19 24 4 35 -6 5 -5 7 4 5 8 -2 15 -12 17 -22 1
-10 5 -21 9 -24 7 -7 0 34 -10 59 -3 10 -2 20 4 24 17 10 13 23 -9 30 -11 3
-20 11 -20 16 0 6 6 7 13 2 22 -14 36 -12 30 5 -5 11 -3 13 7 7 9 -5 11 -4 6
4 -6 9 -11 9 -21 1 -9 -8 -14 -6 -19 6 -9 23 -7 31 4 14 7 -11 10 -11 10 -2 0
7 4 10 10 7 6 -3 7 1 4 9 -3 9 -9 14 -13 12 -3 -2 -11 7 -18 20 l-11 24 31
-22 c29 -20 30 -20 15 -2 -14 16 -15 23 -5 34 10 12 9 12 -4 2 -14 -10 -18 -9
-24 5 -12 29 -14 62 -4 68 5 3 6 0 3 -8 -7 -19 12 -32 22 -16 4 8 3 9 -4 5
-15 -9 -15 -1 -2 24 9 16 8 19 -7 13 -10 -3 -23 -10 -29 -14 -6 -5 -11 -3 -11
6 0 7 3 14 6 13 3 0 13 0 21 1 13 1 13 3 0 10 -8 6 -18 7 -24 4 -5 -3 -6 -1
-2 5 3 6 -2 15 -11 21 -13 7 -14 10 -4 11 8 0 11 3 8 7 -4 3 1 15 10 25 14 15
14 18 2 13 -19 -7 -44 20 -33 36 5 9 2 10 -9 6 -11 -4 -14 -2 -10 8 3 8 9 13
13 10 5 -3 11 -1 14 4 3 4 -4 8 -17 7 -14 -1 -23 6 -25 18 -3 13 0 16 10 11 7
-5 10 -4 5 1 -5 5 -14 9 -20 9 -6 0 -14 11 -18 25 -4 14 -7 21 -8 15 -1 -5
-10 4 -20 21 -77 126 -310 258 -493 279 -29 3 -71 8 -93 11 -22 3 -290 8 -596
11 -466 5 -557 3 -560 -8z m545 -443 c18 -12 32 -14 38 -8 6 6 5 12 -3 17 -8
5 -10 4 -5 -3 4 -7 3 -12 -3 -12 -5 0 -13 5 -16 10 -3 6 -2 10 4 10 6 0 8 8 5
18 -5 16 -5 16 6 0 6 -10 18 -18 26 -18 8 0 13 -3 11 -7 -3 -5 6 -9 19 -9 13
-1 24 2 24 7 0 5 -5 8 -11 7 -6 -2 -14 4 -16 12 -4 13 -3 13 6 0 6 -8 11 -11
11 -6 0 5 7 3 15 -4 8 -7 15 -9 15 -4 0 5 8 0 17 -11 13 -16 15 -17 10 -2 -5
12 -1 17 13 17 14 0 18 5 14 18 -5 16 -5 16 6 0 6 -10 18 -18 26 -18 8 0 13
-4 10 -8 -2 -4 6 -8 20 -8 24 0 32 10 15 20 -5 4 -12 1 -14 -4 -3 -6 -4 -5 -3
2 2 7 11 13 22 13 10 0 25 4 32 8 8 6 11 4 10 -4 -2 -8 10 -14 30 -16 19 -2
32 2 32 9 0 6 3 8 7 5 3 -4 12 -2 20 5 11 9 13 8 11 -2 -2 -7 3 -15 11 -18 10
-3 11 0 5 9 -6 11 -5 12 8 2 8 -7 17 -10 20 -7 3 3 8 1 11 -3 7 -11 -43 -11
-58 -1 -6 4 -17 3 -24 -1 -11 -7 -11 -13 -1 -27 10 -16 11 -16 6 -1 -6 19 10
22 34 8 8 -6 19 -7 25 -3 16 10 34 11 41 1 8 -14 21 -11 28 7 5 13 3 14 -7 6
-10 -8 -16 -6 -27 11 -12 21 -12 21 5 7 15 -12 19 -13 23 -1 4 11 6 11 12 0 7
-10 12 -10 27 1 11 9 9 4 -5 -11 -22 -25 -22 -27 -5 -40 16 -13 17 -12 5 3
-11 14 -11 18 5 26 20 11 77 9 106 -3 15 -6 16 -10 5 -17 -10 -8 -9 -9 3 -5 9
3 28 -1 43 -8 14 -8 26 -11 26 -8 0 3 7 0 15 -7 13 -11 14 -10 9 4 -4 10 -13
15 -21 12 -9 -4 -11 -2 -7 6 4 7 3 8 -4 4 -7 -4 -12 -2 -12 3 0 15 12 14 36
-4 12 -8 25 -11 29 -7 5 4 5 1 1 -6 -6 -9 -2 -12 10 -10 11 2 18 -2 17 -9 -3
-13 9 -17 36 -13 13 2 13 0 0 -16 -8 -11 -9 -15 -1 -10 15 9 16 -6 0 -22 -9
-9 -9 -12 0 -12 7 0 12 5 12 10 0 6 5 10 11 10 6 0 9 -9 6 -20 -3 -11 -1 -20
5 -20 5 0 8 -8 7 -17 -1 -10 1 -26 6 -36 13 -30 -2 -187 -24 -259 -35 -111
-116 -184 -268 -240 -54 -21 -78 -22 -381 -25 -195 -2 -321 1 -317 7 3 5 -3
13 -12 19 -10 6 -13 11 -8 11 6 0 15 -4 20 -9 6 -6 19 -2 33 9 21 17 21 19 3
17 -11 0 -17 -5 -15 -9 9 -15 -3 -8 -17 9 -10 11 -10 14 -1 9 6 -4 12 -2 12 3
0 6 -4 11 -8 11 -5 0 -8 13 -8 29 0 17 3 28 8 25 4 -3 8 7 8 21 0 14 4 24 9
20 5 -3 13 0 17 6 4 8 3 9 -4 5 -16 -10 -15 0 4 32 12 21 13 23 1 9 -9 -11
-18 -14 -21 -8 -4 5 -2 12 2 15 5 3 9 29 8 58 -1 29 3 57 9 61 6 5 4 7 -5 4
-8 -2 -13 -11 -12 -18 2 -8 0 -11 -4 -7 -4 4 -14 2 -23 -5 -14 -11 -15 -10 -1
7 17 22 20 67 5 79 -6 5 -2 7 9 5 11 -2 21 -9 24 -17 3 -8 0 -11 -5 -8 -5 3
-10 -1 -10 -9 0 -13 2 -13 15 0 12 12 13 18 4 29 -7 8 -8 17 -4 22 4 4 -4 5
-18 1 -14 -3 -19 -3 -12 0 6 3 12 21 12 39 0 19 5 37 10 40 6 4 7 11 4 17 -4
7 -9 6 -14 -2 -5 -8 -9 -7 -13 5 -4 9 -3 13 3 10 6 -3 10 -1 10 4 0 6 -5 11
-12 11 -6 0 -8 3 -5 7 4 3 1 13 -6 22 -11 14 -10 14 6 2 16 -12 17 -10 17 28
0 40 1 41 23 30 17 -9 19 -9 11 0 -6 7 -18 13 -25 14 -16 3 -24 22 -10 22 5 0
13 3 17 8 4 4 2 7 -4 7 -14 0 -10 36 5 51 8 8 13 5 18 -10 3 -12 11 -19 16
-16 5 4 5 15 -2 28 -8 19 -8 20 3 7 7 -8 26 -24 42 -34z m124 19 c-3 -3 -9 2
-12 12 -6 14 -5 15 5 6 7 -7 10 -15 7 -18z m19 3 c-3 -8 -6 -5 -6 6 -1 11 2
17 5 13 3 -3 4 -12 1 -19z m-137 2 c0 -5 -2 -10 -4 -10 -3 0 -8 5 -11 10 -3 6
-1 10 4 10 6 0 11 -4 11 -10z m688 -27 c-12 -15 -22 -18 -14 -4 4 5 0 11 -6
14 -7 3 -3 4 9 4 17 -1 19 -4 11 -14z m662 -367 c0 -3 -4 -8 -10 -11 -5 -3
-10 -1 -10 4 0 6 5 11 10 11 6 0 10 -2 10 -4z m-1444 -75 c-1 -22 -5 -43 -9
-47 -4 -4 -3 -12 3 -18 5 -7 5 -18 1 -25 -6 -9 -11 -10 -15 -2 -4 6 -2 11 5
11 8 0 8 4 -2 16 -10 13 -10 17 2 25 12 7 12 9 -1 9 -13 0 -13 1 0 10 13 8 12
11 -5 25 -13 10 -15 14 -5 13 8 -2 14 3 13 10 -2 6 1 12 6 12 4 0 8 -18 7 -39z
m1325 -254 c-6 -8 -7 -18 -3 -22 4 -5 2 -5 -5 -1 -8 4 -18 -5 -28 -24 -9 -18
-21 -28 -27 -24 -7 5 -5 12 7 21 11 7 15 13 9 13 -5 0 -1 5 9 11 9 6 14 15 11
21 -4 6 -2 8 4 4 6 -3 13 -2 17 4 3 5 9 10 12 10 3 0 0 -6 -6 -13z m-90 -94
c13 -16 12 -17 -3 -4 -17 13 -22 21 -14 21 2 0 10 -8 17 -17z m-101 -87 c0 -3
-4 -8 -10 -11 -5 -3 -10 -1 -10 4 0 6 5 11 10 11 6 0 10 -2 10 -4z m-1032
-268 c6 2 12 -2 12 -8 0 -6 -4 -8 -10 -5 -16 10 -11 -1 7 -16 9 -8 14 -9 10
-3 -4 7 0 14 8 18 20 7 46 -4 38 -17 -3 -6 -1 -7 6 -3 6 4 9 11 6 16 -3 4 1
13 8 19 11 9 13 4 12 -21 -2 -29 -1 -30 12 -12 12 16 15 17 24 4 9 -13 10 -12
5 2 -3 10 -1 20 4 23 6 4 10 0 11 -7 0 -10 2 -10 6 0 3 8 11 5 25 -10 11 -13
17 -17 13 -10 -7 13 10 17 18 5 2 -5 3 -3 1 4 -5 20 9 23 23 5 12 -13 14 -14
10 -2 -3 10 2 16 14 17 18 2 18 0 3 -25 -12 -20 -12 -22 -1 -9 8 9 20 17 26
17 7 0 9 4 6 10 -3 5 0 7 9 4 8 -3 14 -11 12 -17 -1 -7 -1 -8 2 -4 2 4 11 2
20 -5 15 -11 15 -11 5 3 -22 28 -2 29 24 1 14 -15 20 -19 13 -9 -9 13 -9 17
-1 17 7 0 10 4 7 8 -3 5 2 9 10 9 9 0 13 -6 10 -14 -4 -9 -1 -11 6 -7 8 5 9 2
5 -10 -4 -11 -3 -15 4 -10 6 3 8 18 5 33 -3 14 -3 20 0 13 3 -6 10 -9 16 -6 6
4 8 -2 4 -17 -3 -13 -3 -18 0 -11 8 17 24 15 47 -5 20 -18 20 -18 4 8 -16 24
-16 25 8 25 14 0 25 -6 25 -12 0 -7 4 -16 10 -19 5 -3 7 0 4 9 -4 10 0 13 13
11 10 -2 23 -4 30 -4 7 -1 10 -8 7 -18 -5 -15 -4 -15 4 -3 7 9 7 19 2 25 -6 8
-5 12 4 12 10 0 13 -9 10 -29 -2 -17 1 -26 6 -23 6 4 10 15 10 25 0 10 4 21 8
24 5 3 8 -5 8 -17 -1 -13 4 -21 13 -19 7 1 19 -3 27 -9 12 -10 13 -8 8 7 -6
16 -5 17 7 7 18 -17 34 -17 20 0 -8 10 -7 14 4 14 7 0 13 -5 12 -11 -1 -6 7
-10 18 -8 16 2 17 1 5 -7 -13 -9 -13 -11 3 -11 9 0 17 5 17 12 0 6 3 8 6 5 4
-4 2 -12 -4 -20 -8 -10 -6 -16 10 -26 11 -7 18 -9 15 -4 -3 5 6 13 19 20 13 6
24 8 24 3 0 -4 -7 -10 -15 -14 -8 -3 -15 -11 -14 -18 0 -9 2 -10 5 -1 3 6 16
9 30 7 18 -3 23 -1 18 7 -4 8 -3 9 5 5 6 -4 8 -13 4 -19 -11 -18 -12 -38 -2
-31 5 3 12 -2 15 -10 3 -9 14 -16 23 -16 14 0 14 2 1 10 -12 7 -10 9 8 7 25
-1 27 -7 10 -26 -10 -11 -10 -13 0 -7 6 4 12 2 12 -4 0 -6 5 -8 13 -4 9 6 9 4
-1 -8 -10 -13 -10 -18 -1 -24 8 -5 10 -3 5 7 -4 8 0 5 8 -5 13 -16 13 -22 3
-35 -9 -12 -9 -13 1 -7 7 4 12 2 13 -6 0 -7 3 -22 6 -33 2 -11 5 -74 5 -140 1
-99 -3 -131 -21 -184 -38 -109 -106 -190 -216 -256 -127 -76 -278 -101 -631
-104 l-244 -2 0 25 c0 14 -6 26 -12 26 -9 0 -8 3 2 10 13 8 12 11 -5 25 -13
10 -15 14 -5 13 8 -2 14 3 13 10 -2 6 2 12 8 12 6 0 8 -8 4 -19 -3 -11 -1 -22
4 -26 7 -3 9 11 6 40 -3 34 0 47 13 54 15 9 14 10 -5 8 -12 0 -19 -5 -17 -9 9
-15 -3 -8 -17 9 -10 11 -10 14 -1 9 6 -4 12 -2 12 3 0 6 -4 11 -8 11 -5 0 -8
13 -8 29 0 17 3 28 8 25 4 -3 8 7 8 21 0 14 4 24 9 20 5 -3 13 0 17 6 4 8 3 9
-4 5 -17 -10 -15 4 3 24 14 15 14 18 1 23 -10 4 -13 1 -10 -8 4 -9 -1 -13 -12
-11 -10 2 -20 9 -22 17 -3 11 -1 11 7 -1 9 -13 11 -13 11 3 0 9 -6 17 -12 17
-9 0 -10 3 -2 8 15 10 11 52 -7 63 -8 5 -9 9 -3 9 6 0 24 -10 40 -22 24 -18
26 -19 12 -2 -12 14 -14 24 -7 37 7 11 7 17 0 17 -5 0 -12 -8 -14 -17 -3 -10
-5 -4 -6 14 0 17 -6 35 -11 38 -17 10 -1 25 23 21 12 -1 16 -1 9 1 -7 3 -9 9
-6 15 4 6 -2 8 -17 3 -13 -3 -19 -3 -14 2 6 4 12 22 13 38 1 17 11 38 22 47
20 16 20 17 1 15 -11 0 -17 -5 -15 -9 9 -15 -3 -8 -17 9 -10 11 -10 14 -1 9 6
-4 12 -2 12 3 0 6 -4 11 -8 11 -5 0 -8 13 -8 29 0 17 4 27 9 24 5 -3 7 10 5
28 -1 19 -10 37 -18 42 -10 5 -8 6 8 3 22 -4 26 1 24 42 -1 15 3 20 11 16 8
-5 8 -2 -1 7 -11 11 -14 12 -21 1 -7 -11 -10 -10 -14 3 -4 9 -3 13 3 10 6 -3
10 -1 10 5 0 6 4 9 8 6 5 -3 9 1 9 10 0 10 -7 12 -21 8 -19 -6 -19 -6 -2 11 9
10 15 24 12 31 -3 7 0 16 6 20 7 4 8 3 4 -4 -4 -7 -3 -12 3 -12 5 0 13 5 16
10 4 6 19 2 38 -12 28 -20 30 -20 17 -3 -8 11 -22 26 -30 33 -12 11 -11 11 10
0 14 -7 31 -11 38 -10z m72 7 c0 -1 -12 -2 -26 -2 -17 0 -22 2 -13 7 10 7 39
3 39 -5z m46 -13 c-17 -16 -18 -16 -5 5 7 12 15 20 18 17 3 -2 -3 -12 -13 -22z
m83 2 c-14 -13 -16 -13 -16 0 0 8 4 13 9 10 4 -3 8 0 8 7 0 7 3 9 7 5 4 -3 0
-13 -8 -22z m602 -67 c-10 -9 -11 -8 -5 6 3 10 9 15 12 12 3 -3 0 -11 -7 -18z
m109 -58 c0 -6 -4 -7 -10 -4 -5 3 -10 11 -10 16 0 6 5 7 10 4 6 -3 10 -11 10
-16z m-1013 -14 c0 -8 -4 -15 -9 -15 -10 0 -11 14 -1 23 9 10 10 9 10 -8z
m1549 -150 c-3 -23 -12 -26 -13 -5 -1 11 2 20 7 20 4 0 7 -7 6 -15z m14 -29
c0 -2 -8 -10 -17 -17 -16 -13 -17 -12 -4 4 13 16 21 21 21 13z m-1585 -26 c3
-6 -1 -7 -9 -4 -18 7 -21 14 -7 14 6 0 13 -4 16 -10z m1589 -29 c4 -5 -3 -7
-14 -4 -23 6 -26 13 -6 13 8 0 17 -4 20 -9z m13 -173 c-3 -8 -6 -5 -6 6 -1 11
2 17 5 13 3 -3 4 -12 1 -19z m-1583 -113 c-4 -8 -11 -12 -16 -9 -6 4 -5 10 3
15 19 12 19 11 13 -6z m1546 -109 c-7 -7 -14 -6 -22 3 -11 10 -9 11 7 5 18 -7
19 -6 5 12 -14 18 -14 18 3 5 12 -10 15 -17 7 -25z m-1544 -68 c4 -7 4 -10 -1
-6 -4 4 -15 2 -24 -5 -14 -11 -14 -10 -2 6 16 20 18 21 27 5z m1521 -19 c-6
-10 -18 -19 -26 -19 -11 0 -10 4 4 13 10 8 15 19 11 25 -4 8 -2 10 8 6 12 -5
13 -9 3 -25z m-67 -89 c0 -5 -5 -10 -11 -10 -5 0 -7 5 -4 10 3 6 8 10 11 10 2
0 4 -4 4 -10z m-91 -144 c9 -11 9 -16 -1 -22 -7 -4 -10 -4 -6 1 4 4 3 14 -3
22 -6 7 -9 13 -6 13 2 0 10 -6 16 -14z m-69 -56 c0 -5 -5 -10 -11 -10 -5 0 -7
5 -4 10 3 6 8 10 11 10 2 0 4 -4 4 -10z m-260 -160 c0 -5 -5 -10 -11 -10 -5 0
-7 5 -4 10 3 6 8 10 11 10 2 0 4 -4 4 -10z m-25 -22 c4 -3 2 -9 -3 -12 -5 -3
-15 1 -21 8 -10 11 -9 14 3 12 9 -1 18 -5 21 -8z m-35 -12 c0 -3 -4 -8 -10
-11 -5 -3 -10 -1 -10 4 0 6 5 11 10 11 6 0 10 -2 10 -4z m-165 -26 c3 -5 1
-10 -4 -10 -6 0 -11 5 -11 10 0 6 2 10 4 10 3 0 8 -4 11 -10z m-744 -35 c5 4
9 1 9 -4 0 -14 -11 -13 -32 3 -10 7 -15 16 -11 20 4 4 11 0 16 -9 4 -8 12 -13
18 -10z m320 0 c5 4 9 1 9 -4 0 -14 -11 -13 -32 3 -10 7 -15 16 -11 20 4 4 11
0 16 -9 4 -8 12 -13 18 -10z m169 -10 c0 -5 -5 -3 -10 5 -5 8 -10 20 -10 25 0
6 5 3 10 -5 5 -8 10 -19 10 -25z m147 13 c-3 -8 -6 -5 -6 6 -1 11 2 17 5 13 3
-3 4 -12 1 -19z m-507 -8 c0 -5 -2 -10 -4 -10 -3 0 -8 5 -11 10 -3 6 -1 10 4
10 6 0 11 -4 11 -10z m105 1 c-9 -8 -36 -10 -30 -2 2 4 11 8 20 8 8 0 13 -3
10 -6z"/>
<path d="M4256 3809 c3 -5 9 -7 14 -4 5 3 13 -3 19 -12 6 -10 11 -13 11 -6 0
13 -17 26 -38 29 -6 1 -10 -2 -6 -7z"/>
<path d="M3903 3795 c0 -8 6 -16 13 -19 7 -3 10 2 7 15 -6 22 -20 26 -20 4z"/>
<path d="M4175 3800 c6 -10 4 -12 -11 -6 -15 6 -17 5 -6 -5 9 -9 15 -10 23 -2
8 8 7 13 -2 18 -8 6 -10 4 -4 -5z"/>
<path d="M4540 3790 c-9 -6 -10 -10 -3 -10 6 0 15 5 18 10 8 12 4 12 -15 0z"/>
<path d="M4563 3777 c-18 -22 -18 -22 3 -4 17 14 23 15 27 5 4 -11 6 -11 6 0
1 8 6 10 14 6 6 -4 8 -3 4 1 -14 16 -36 13 -54 -8z"/>
<path d="M3945 3780 c-3 -6 1 -7 9 -4 18 7 21 14 7 14 -6 0 -13 -4 -16 -10z"/>
<path d="M4760 3740 c-9 -6 -10 -10 -3 -10 6 0 15 5 18 10 8 12 4 12 -15 0z"/>
<path d="M3896 3653 c-4 -10 1 -24 15 -37 l22 -21 -16 24 c-12 18 -14 28 -5
38 6 8 7 13 0 13 -5 0 -13 -8 -16 -17z"/>
<path d="M3900 3546 c0 -2 7 -7 16 -10 8 -3 12 -2 9 4 -6 10 -25 14 -25 6z"/>
<path d="M3890 3196 c-8 -11 -9 -20 0 -35 12 -23 24 -29 17 -8 -2 6 0 20 4 29
12 22 -5 32 -21 14z m13 -11 c-3 -9 -8 -14 -10 -11 -3 3 -2 9 2 15 9 16 15 13
8 -4z"/>
<path d="M3914 2618 c-13 -16 -14 -19 -2 -10 13 10 17 10 21 0 4 -10 6 -10 6
1 1 11 4 11 19 0 14 -11 13 -10 -2 9 -11 12 -20 22 -21 22 -1 0 -10 -10 -21
-22z"/>
<path d="M4033 2615 c0 -8 4 -12 9 -9 5 3 6 10 3 15 -9 13 -12 11 -12 -6z"/>
<path d="M4710 2586 c0 -2 9 -6 20 -9 11 -3 18 -1 14 4 -5 9 -34 13 -34 5z"/>
<path d="M4840 2535 c-11 -13 -10 -14 4 -9 9 3 16 10 16 15 0 13 -6 11 -20 -6z"/>
<path d="M3913 2468 c1 -7 -4 -12 -11 -10 -8 1 -11 -2 -7 -8 5 -8 11 -8 21 1
7 6 11 15 8 20 -8 13 -14 11 -11 -3z"/>
<path d="M3890 2396 c-8 -11 -9 -20 0 -35 12 -23 24 -29 17 -8 -2 6 0 20 4 29
12 22 -5 32 -21 14z m13 -11 c-3 -9 -8 -14 -10 -11 -3 3 -2 9 2 15 9 16 15 13
8 -4z"/>
<path d="M3895 2261 c-3 -5 0 -13 6 -17 8 -5 9 -3 4 6 -6 10 -4 12 9 7 10 -4
15 -3 11 3 -8 13 -22 13 -30 1z"/>
<path d="M3887 2189 c7 -7 15 -10 18 -7 3 3 -2 9 -12 12 -14 6 -15 5 -6 -5z"/>
<path d="M3894 2066 c0 -13 4 -22 9 -19 10 6 9 31 -2 37 -5 3 -8 -5 -7 -18z"/>
<path d="M3890 1916 c-8 -11 -9 -20 0 -35 12 -23 24 -29 17 -8 -2 6 0 20 4 29
12 22 -5 32 -21 14z m13 -11 c-3 -9 -8 -14 -10 -11 -3 3 -2 9 2 15 9 16 15 13
8 -4z"/>
<path d="M3900 1706 c0 -2 7 -7 16 -10 8 -3 12 -2 9 4 -6 10 -25 14 -25 6z"/>
<path d="M910 4118 c0 -11 28 -10 35 1 3 6 -4 9 -15 8 -11 -1 -20 -5 -20 -9z"/>
<path d="M2890 4031 c0 -7 -4 -9 -10 -6 -5 3 -10 1 -10 -4 0 -6 4 -11 9 -11
13 0 25 20 17 27 -3 4 -6 1 -6 -6z"/>
<path d="M2891 3993 c-1 -17 16 -25 25 -12 4 7 3 9 -4 5 -5 -3 -13 0 -15 6 -4
9 -6 10 -6 1z"/>
<path d="M2870 3985 c0 -5 5 -17 10 -25 5 -8 10 -10 10 -5 0 6 -5 17 -10 25
-5 8 -10 11 -10 5z"/>
<path d="M2874 3915 c0 -14 4 -25 8 -25 4 0 7 9 5 20 -5 29 -13 33 -13 5z"/>
<path d="M2890 3871 c0 -7 -4 -9 -10 -6 -5 3 -10 1 -10 -4 0 -6 4 -11 9 -11
13 0 25 20 17 27 -3 4 -6 1 -6 -6z"/>
<path d="M1053 3852 c-8 -5 -3 -16 14 -37 25 -29 25 -29 9 -2 -9 15 -14 32
-11 37 7 12 4 12 -12 2z"/>
<path d="M2891 3833 c-1 -17 16 -25 25 -12 4 7 3 9 -4 5 -5 -3 -13 0 -15 6 -4
9 -6 10 -6 1z"/>
<path d="M2870 3825 c0 -5 5 -17 10 -25 5 -8 10 -10 10 -5 0 6 -5 17 -10 25
-5 8 -10 11 -10 5z"/>
<path d="M2874 3755 c0 -13 3 -22 7 -19 8 4 6 30 -2 38 -3 3 -5 -5 -5 -19z"/>
<path d="M1088 3746 c4 -6 7 -14 7 -18 0 -19 11 -14 11 6 0 12 -6 23 -13 23
-6 0 -9 -5 -5 -11z"/>
<path d="M5290 3725 c0 -2 8 -9 18 -14 14 -7 19 -6 19 3 0 6 -9 13 -19 13 -10
1 -18 0 -18 -2z"/>
<path d="M2873 3605 c0 -8 4 -12 9 -9 4 3 8 9 8 15 0 5 -4 9 -8 9 -5 0 -9 -7
-9 -15z"/>
<path d="M5325 3600 c4 -6 11 -8 16 -5 14 9 11 15 -7 15 -8 0 -12 -5 -9 -10z"/>
<path d="M1215 3470 c-7 -11 22 -26 32 -16 4 3 -1 6 -11 6 -9 0 -14 5 -11 10
3 6 4 10 1 10 -3 0 -8 -5 -11 -10z"/>
<path d="M2356 3461 c-3 -4 6 -13 19 -19 30 -14 31 -12 5 10 -10 10 -22 14
-24 9z"/>
<path d="M2893 3418 c3 -9 1 -19 -6 -22 -9 -3 -9 -5 0 -5 18 -1 23 13 11 29
-8 12 -9 12 -5 -2z"/>
<path d="M737 3411 c6 -7 9 -20 6 -27 -4 -10 1 -13 16 -11 11 2 24 7 28 11 5
4 1 6 -7 4 -9 -2 -14 3 -12 12 2 8 0 12 -4 8 -4 -4 -14 -2 -23 4 -13 10 -14
10 -4 -1z"/>
<path d="M5350 3399 c0 -5 5 -7 10 -4 6 3 10 8 10 11 0 2 -4 4 -10 4 -5 0 -10
-5 -10 -11z"/>
<path d="M1255 3360 c3 -5 8 -10 11 -10 2 0 4 5 4 10 0 6 -5 10 -11 10 -5 0
-7 -4 -4 -10z"/>
<path d="M740 3356 c0 -2 8 -10 18 -17 15 -13 16 -12 3 4 -13 16 -21 21 -21
13z"/>
<path d="M2882 3314 c-14 -16 -5 -18 17 -5 7 5 9 11 5 14 -5 3 -15 -1 -22 -9z"/>
<path d="M5323 3323 c4 -6 0 -14 -9 -17 -8 -3 -13 -10 -9 -15 3 -5 1 -13 -5
-16 -13 -8 6 -35 24 -35 7 0 7 3 1 8 -13 9 -17 32 -6 32 13 0 21 39 9 47 -6 3
-8 1 -5 -4z"/>
<path d="M1304 3271 c20 -22 26 -25 26 -13 0 4 -10 13 -22 21 -23 14 -23 14
-4 -8z"/>
<path d="M2875 3260 c-3 -5 -1 -10 4 -10 6 0 11 5 11 10 0 6 -2 10 -4 10 -3 0
-8 -4 -11 -10z"/>
<path d="M5275 3200 c-3 -5 -1 -10 4 -10 6 0 11 5 11 10 0 6 -2 10 -4 10 -3 0
-8 -4 -11 -10z"/>
<path d="M1355 3150 c8 -9 12 -20 8 -24 -4 -4 1 -4 11 0 17 7 17 8 3 19 -9 7
-15 14 -12 17 3 2 -2 5 -10 5 -13 0 -13 -2 0 -17z"/>
<path d="M5240 3156 c0 -2 7 -9 15 -16 9 -7 15 -8 15 -2 0 5 -7 12 -15 16 -8
3 -15 4 -15 2z"/>
<path d="M2879 3142 c9 -7 10 -11 2 -15 -7 -4 -8 -5 -1 -3 16 2 14 20 -2 24
-10 3 -10 2 1 -6z"/>
<path d="M5242 3116 c7 -8 15 -12 17 -11 5 6 -10 25 -20 25 -5 0 -4 -6 3 -14z"/>
<path d="M1420 3020 c0 -5 9 -14 20 -20 11 -6 20 -9 20 -8 0 2 -9 11 -20 21
-11 9 -20 13 -20 7z"/>
<path d="M2873 2965 c0 -8 4 -12 9 -9 4 3 8 9 8 15 0 5 -4 9 -8 9 -5 0 -9 -7
-9 -15z"/>
<path d="M5110 2959 c0 -5 5 -7 10 -4 6 3 10 8 10 11 0 2 -4 4 -10 4 -5 0 -10
-5 -10 -11z"/>
<path d="M1450 2940 c13 -24 17 -25 17 -5 0 8 -6 16 -14 19 -11 4 -11 1 -3
-14z"/>
<path d="M743 2908 c-1 -12 4 -17 17 -15 11 2 23 7 27 11 5 4 1 6 -7 4 -8 -1
-14 2 -13 8 1 6 -4 11 -11 11 -6 0 -13 -9 -13 -19z"/>
<path d="M740 2876 c0 -2 8 -10 18 -17 15 -13 16 -12 3 4 -13 16 -21 21 -21
13z"/>
<path d="M2893 2778 c3 -9 1 -19 -6 -22 -9 -3 -9 -5 0 -5 18 -1 23 13 11 29
-8 12 -9 12 -5 -2z"/>
<path d="M2050 2740 c0 -5 5 -10 10 -10 6 0 10 5 10 10 0 6 -4 10 -10 10 -5 0
-10 -4 -10 -10z"/>
<path d="M2882 2674 c-14 -16 -5 -18 17 -5 7 5 9 11 5 14 -5 3 -15 -1 -22 -9z"/>
<path d="M2875 2620 c-3 -5 -1 -10 4 -10 6 0 11 5 11 10 0 6 -2 10 -4 10 -3 0
-8 -4 -11 -10z"/>
<path d="M1929 2504 c0 -5 -2 -17 -4 -26 -2 -10 2 -15 10 -12 7 3 12 12 11 19
-3 17 -16 32 -17 19z"/>
<path d="M2879 2502 c9 -7 10 -11 2 -15 -7 -4 -8 -5 -1 -3 16 2 14 20 -2 24
-10 3 -10 2 1 -6z"/>
<path d="M2890 2431 c0 -7 -4 -9 -10 -6 -5 3 -10 1 -10 -4 0 -6 4 -11 9 -11
13 0 25 20 17 27 -3 4 -6 1 -6 -6z"/>
<path d="M5450 2405 c-7 -9 -8 -15 -2 -15 5 0 12 7 16 15 3 8 4 15 2 15 -2 0
-9 -7 -16 -15z"/>
<path d="M2891 2393 c-1 -17 16 -25 25 -12 4 7 3 9 -4 5 -5 -3 -13 0 -15 6 -4
9 -6 10 -6 1z"/>
<path d="M2870 2385 c0 -5 5 -17 10 -25 5 -8 10 -10 10 -5 0 6 -5 17 -10 25
-5 8 -10 11 -10 5z"/>
<path d="M1876 2348 c3 -4 11 -5 19 -1 21 7 19 12 -4 10 -11 0 -18 -5 -15 -9z"/>
<path d="M2874 2315 c0 -14 4 -25 8 -25 4 0 7 9 5 20 -5 29 -13 33 -13 5z"/>
<path d="M2890 2271 c0 -7 -4 -9 -10 -6 -5 3 -10 1 -10 -4 0 -6 4 -11 9 -11
13 0 25 20 17 27 -3 4 -6 1 -6 -6z"/>
<path d="M2891 2233 c-1 -17 16 -25 25 -12 4 7 3 9 -4 5 -5 -3 -13 0 -15 6 -4
9 -6 10 -6 1z"/>
<path d="M747 2216 c-4 -10 -1 -13 8 -9 8 3 12 9 9 14 -7 12 -11 11 -17 -5z"/>
<path d="M2870 2225 c0 -5 5 -17 10 -25 5 -8 10 -10 10 -5 0 6 -5 17 -10 25
-5 8 -10 11 -10 5z"/>
<path d="M5476 2163 c-6 -14 -5 -15 5 -6 7 7 10 15 7 18 -3 3 -9 -2 -12 -12z"/>
<path d="M2895 2040 c-3 -5 -3 -10 2 -11 4 0 -1 -5 -12 -10 -19 -8 -19 -9 -1
-6 11 1 20 10 22 20 3 19 -2 22 -11 7z"/>
<path d="M5473 1995 c0 -8 4 -12 9 -9 4 3 8 9 8 15 0 5 -4 9 -8 9 -5 0 -9 -7
-9 -15z"/>
<path d="M747 1896 c-4 -10 -1 -13 8 -9 8 3 12 9 9 14 -7 12 -11 11 -17 -5z"/>
<path d="M743 1788 c-1 -12 4 -17 17 -15 11 2 23 7 27 11 5 4 1 6 -7 4 -8 -1
-14 2 -13 8 1 6 -4 11 -11 11 -6 0 -13 -9 -13 -19z"/>
<path d="M2895 1800 c-3 -5 -3 -10 2 -11 4 0 -1 -5 -12 -10 -19 -8 -19 -9 -1
-6 11 1 20 10 22 20 3 19 -2 22 -11 7z"/>
<path d="M740 1756 c0 -2 8 -10 18 -17 15 -13 16 -12 3 4 -13 16 -21 21 -21
13z"/>
<path d="M2890 1471 c0 -7 -4 -9 -10 -6 -5 3 -10 1 -10 -4 0 -6 4 -11 9 -11
13 0 25 20 17 27 -3 4 -6 1 -6 -6z"/>
<path d="M2891 1433 c-1 -17 16 -25 25 -12 4 7 3 9 -4 5 -5 -3 -13 0 -15 6 -4
9 -6 10 -6 1z"/>
<path d="M2870 1425 c0 -5 5 -17 10 -25 5 -8 10 -10 10 -5 0 6 -5 17 -10 25
-5 8 -10 11 -10 5z"/>
<path d="M5055 1389 c-10 -15 3 -25 16 -12 7 7 7 13 1 17 -6 3 -14 1 -17 -5z"/>
<path d="M2874 1345 c0 -19 6 -37 13 -40 10 -3 11 0 5 13 -5 9 -8 25 -7 34 2
10 0 20 -4 22 -4 3 -7 -11 -7 -29z"/>
<path d="M356 1322 c-3 -5 1 -9 9 -9 8 0 12 4 9 9 -3 4 -7 8 -9 8 -2 0 -6 -4
-9 -8z"/>
<path d="M4925 1300 c-3 -6 1 -7 9 -4 18 7 21 14 7 14 -6 0 -13 -4 -16 -10z"/>
<path d="M358 1293 c7 -3 16 -2 19 1 4 3 -2 6 -13 5 -11 0 -14 -3 -6 -6z"/>
<path d="M4795 1280 c-4 -6 -10 -8 -15 -5 -5 3 -11 2 -14 -3 -2 -4 8 -8 23 -7
19 0 27 4 24 12 -6 16 -10 16 -18 3z"/>
<path d="M657 1223 c3 -7 6 -13 8 -13 2 0 5 6 8 13 3 8 -1 14 -8 14 -7 0 -11
-6 -8 -14z"/>
<path d="M3596 1232 c-3 -3 -6 -10 -6 -16 0 -6 4 -5 9 2 10 16 22 14 39 -7 12
-14 12 -14 4 3 -10 19 -35 29 -46 18z"/>
<path d="M2490 1220 c0 -5 5 -10 11 -10 5 0 7 5 4 10 -3 6 -8 10 -11 10 -2 0
-4 -4 -4 -10z"/>
</g>
</svg>
